<svg width="30" height="30" viewBox="0 0 30 30" fill="none" xmlns="http://www.w3.org/2000/svg">
<path fill-rule="evenodd" clip-rule="evenodd" d="M9.83342 0H20.8334C25.8952 0 30.0001 4.10483 30.0001 9.16667V20.1667C30.0001 25.2285 25.8952 29.3333 20.8334 29.3333H9.83342C4.77158 29.3333 0.666748 25.2285 0.666748 20.1667V9.16667C0.666748 4.10483 4.77158 0 9.83342 0ZM20.8334 26.5833C24.3717 26.5833 27.2501 23.705 27.2501 20.1667V9.16667C27.2501 5.62833 24.3717 2.75 20.8334 2.75H9.83342C6.29508 2.75 3.41675 5.62833 3.41675 9.16667V20.1667C3.41675 23.705 6.29508 26.5833 9.83342 26.5833H20.8334Z" fill="white"/>
</svg>
