<svg width="72" height="71" viewBox="0 0 72 71" fill="none" xmlns="http://www.w3.org/2000/svg">
<rect x="0.390323" y="0.390323" width="70.2581" height="70.2194" fill="white"/>
<rect width="64.0129" height="39.0323" transform="translate(3.90332 16.3936)" fill="white"/>
<g clip-path="url(#clip0_2_1293)">
<path d="M34.4092 35.6727V40.6868H32.8274V28.3096H37.0227C38.0347 28.2898 39.0074 28.6748 39.7442 29.3854C40.4811 30.0467 40.8938 31.0041 40.8741 31.9912C40.8938 32.988 40.4811 33.9455 39.7442 34.6166C39.0074 35.3174 38.1034 35.6727 37.0325 35.6727H34.4092ZM34.4092 29.8296V34.1527H37.062C37.6515 34.1725 38.2213 33.9356 38.6242 33.5112C39.4593 32.7018 39.4691 31.3693 38.6635 30.5304L38.6242 30.4909C38.2213 30.0566 37.6515 29.8197 37.062 29.8394L34.4092 29.8296ZM44.5192 31.9418C45.6884 31.9418 46.6119 32.2577 47.2899 32.8795C47.9678 33.5112 48.3019 34.3699 48.3019 35.4655V40.677H46.7888V39.5024H46.72C46.0617 40.4697 45.1971 40.9533 44.1066 40.9533C43.183 40.9533 42.397 40.677 41.778 40.1242C41.1689 39.611 40.825 38.851 40.8446 38.0515C40.8446 37.173 41.1787 36.4821 41.837 35.959C42.4952 35.4359 43.3795 35.1792 44.4799 35.1792C45.4231 35.1792 46.1895 35.3569 46.7986 35.6925V35.3273C46.7986 34.7844 46.5628 34.2712 46.1502 33.9257C45.7277 33.5507 45.1873 33.3434 44.6273 33.3434C43.743 33.3434 43.0454 33.7184 42.5247 34.4686L41.1296 33.5901C41.8861 32.4945 43.016 31.9418 44.5192 31.9418ZM42.4756 38.091C42.4756 38.5055 42.6721 38.8904 42.9963 39.1273C43.35 39.4037 43.7823 39.5517 44.2245 39.5419C44.8926 39.5419 45.5312 39.2754 46.0028 38.8016C46.5235 38.3081 46.7888 37.7258 46.7888 37.0546C46.2975 36.6598 45.6098 36.4624 44.7255 36.4624C44.0869 36.4624 43.5465 36.6203 43.1142 36.9263C42.6917 37.2421 42.4756 37.6271 42.4756 38.091ZM56.9872 32.2182L51.7013 44.4178H50.0704L52.0354 40.1538L48.5573 32.228H50.2767L52.7821 38.3081H52.8214L55.2678 32.228L56.9872 32.2182Z" fill="#5F6368"/>
<path d="M28.0132 34.587C28.0132 34.1034 27.9739 33.6198 27.8953 33.146H21.2241V35.88H25.0461C24.8889 36.7585 24.378 37.5481 23.6313 38.0416V39.8183H25.9107C27.2469 38.5845 28.0132 36.7585 28.0132 34.587Z" fill="#4285F4"/>
<path d="M21.2242 41.5355C23.1303 41.5355 24.7416 40.9038 25.9108 39.8181L23.6314 38.0414C22.9928 38.4757 22.1773 38.7225 21.2242 38.7225C19.3771 38.7225 17.815 37.469 17.2549 35.791H14.9067V37.6269C16.1054 40.0155 18.5518 41.5355 21.2242 41.5355Z" fill="#34A853"/>
<path d="M17.2549 35.7911C16.9601 34.9127 16.9601 33.9553 17.2549 33.067V31.241H14.9067C14.4077 32.2289 14.1477 33.3212 14.1477 34.429C14.1477 35.5369 14.4077 36.6292 14.9067 37.6171L17.2549 35.7911Z" fill="#FBBC04"/>
<path d="M21.2242 30.1355C22.2362 30.1157 23.2089 30.5007 23.936 31.2014L25.9501 29.1781C24.6728 27.964 22.9829 27.3027 21.2242 27.3225C18.5518 27.3225 16.1054 28.8425 14.9067 31.2409L17.2549 33.0768C17.815 31.389 19.3771 30.1355 21.2242 30.1355Z" fill="#EA4335"/>
</g>
<rect x="0.390323" y="0.390323" width="70.2581" height="70.2194" stroke="#D3D3D3" stroke-width="0.780645"/>
<defs>
<clipPath id="clip0_2_1293">
<rect width="42.9355" height="17.1742" fill="white" transform="translate(14.0515 27.3225)"/>
</clipPath>
</defs>
</svg>
