<svg width="72" height="71" viewBox="0 0 72 71" fill="none" xmlns="http://www.w3.org/2000/svg">
<rect x="0.390323" y="0.390323" width="70.2581" height="70.2194" fill="white"/>
<rect width="64.0129" height="39.0323" transform="translate(3.90332 16.3936)" fill="white"/>
<g clip-path="url(#clip0_2_851)">
<path d="M28.2692 40.844C28.0159 41.4349 27.7024 41.9982 27.3336 42.525C26.8439 43.2266 26.442 43.709 26.135 43.9795C25.6526 44.418 25.141 44.6446 24.5928 44.6592C24.1981 44.6592 23.723 44.5496 23.1676 44.3157C22.6825 44.1053 22.1613 43.9911 21.6327 43.9795C21.0898 43.9893 20.5538 44.1034 20.054 44.3157C19.4912 44.5422 19.0381 44.6592 18.6872 44.6738C18.161 44.6957 17.6347 44.4619 17.1085 43.9722C16.7723 43.6798 16.3557 43.1755 15.8514 42.4665C15.2858 41.6541 14.838 40.7658 14.5212 39.828C14.1484 38.7463 13.9584 37.7011 13.9584 36.6852C13.9584 35.5231 14.2069 34.5218 14.7112 33.6812C15.0928 33.0221 15.6361 32.4712 16.2899 32.0806C16.9345 31.6917 17.6713 31.4823 18.4241 31.474C18.8407 31.474 19.3962 31.6055 20.0759 31.8613C20.7556 32.1171 21.1942 32.2487 21.3842 32.2487C21.5304 32.2487 22.0128 32.0952 22.8387 31.7955C23.6183 31.5178 24.2761 31.4009 24.8121 31.4447C26.2739 31.5617 27.3702 32.1391 28.1011 33.1769C26.7928 33.9663 26.1496 35.0772 26.1642 36.4952C26.1788 37.6061 26.5808 38.527 27.3702 39.2579C27.721 39.5885 28.1266 39.8556 28.5688 40.0473C28.4811 40.325 28.3788 40.5881 28.2692 40.844ZM24.9217 27.6733C24.9217 28.5431 24.6074 29.3544 23.9716 30.0999C23.2114 30.9916 22.2832 31.5032 21.2892 31.4228C21.2741 31.3138 21.2668 31.2039 21.2673 31.0939C21.2673 30.2607 21.6327 29.369 22.2759 28.6381C22.6176 28.2501 23.0356 27.9366 23.5038 27.7172C23.9403 27.4927 24.4176 27.3585 24.9071 27.3225C24.9144 27.4395 24.9217 27.5564 24.9217 27.6733Z" fill="#272727"/>
<path d="M38.1583 36.3929C38.5189 36.3929 38.8332 36.3491 39.1012 36.2613C39.3692 36.1688 39.5909 36.0396 39.7663 35.874C39.9466 35.7034 40.0806 35.4988 40.1683 35.26C40.256 35.0164 40.2998 34.746 40.2998 34.4487C40.2998 34.1661 40.256 33.9103 40.1683 33.6813C40.0806 33.4523 39.949 33.2574 39.7736 33.0966C39.5982 32.9358 39.3765 32.814 39.1085 32.7312C38.8405 32.6434 38.5238 32.5996 38.1583 32.5996H36.6892V36.3929H38.1583ZM38.1583 31.0793C38.8648 31.0793 39.4764 31.1622 39.9929 31.3278C40.5093 31.4935 40.9357 31.725 41.2719 32.0222C41.6081 32.3194 41.8566 32.6751 42.0174 33.0893C42.1831 33.5035 42.2659 33.9566 42.2659 34.4487C42.2659 34.9604 42.1806 35.4306 42.0101 35.8594C41.8396 36.2833 41.5838 36.6487 41.2427 36.9557C40.9016 37.2627 40.4728 37.5014 39.9563 37.672C39.4447 37.8425 38.8454 37.9278 38.1583 37.9278H36.6892V41.648H34.7231V31.0793H38.1583Z" fill="#272727"/>
<path d="M47.5139 38.4467C46.9926 38.4711 46.554 38.5174 46.1983 38.5856C45.8426 38.6489 45.5576 38.7318 45.3432 38.8341C45.1288 38.9364 44.9753 39.0558 44.8827 39.1922C44.7901 39.3286 44.7439 39.4773 44.7439 39.6381C44.7439 39.9548 44.8364 40.1813 45.0216 40.3178C45.2116 40.4542 45.4577 40.5224 45.7598 40.5224C46.1301 40.5224 46.4493 40.4566 46.7173 40.3251C46.9901 40.1887 47.2557 39.984 47.5139 39.7111V38.4467ZM43.3771 35.1943C44.2395 34.4049 45.2774 34.0102 46.4907 34.0102C46.9292 34.0102 47.3215 34.0833 47.6674 34.2295C48.0134 34.3708 48.3057 34.5706 48.5445 34.8288C48.7832 35.0822 48.9635 35.3867 49.0853 35.7424C49.212 36.0981 49.2754 36.4879 49.2754 36.9118V41.648H48.4568C48.2862 41.648 48.1547 41.6236 48.0621 41.5749C47.9695 41.5213 47.8964 41.4166 47.8428 41.2606L47.682 40.7198C47.492 40.8903 47.3068 41.0414 47.1266 41.1729C46.9463 41.2996 46.7587 41.4068 46.5638 41.4945C46.3689 41.5822 46.1593 41.648 45.9352 41.6919C45.7159 41.7406 45.4723 41.7649 45.2043 41.7649C44.8876 41.7649 44.5952 41.7235 44.3273 41.6407C44.0593 41.553 43.8278 41.4239 43.6329 41.2533C43.438 41.0828 43.287 40.8708 43.1798 40.6174C43.0726 40.3641 43.019 40.0693 43.019 39.7331C43.019 39.543 43.0506 39.3554 43.114 39.1703C43.1773 38.9803 43.2796 38.8 43.4209 38.6294C43.5671 38.4589 43.7547 38.2981 43.9837 38.147C44.2127 37.996 44.4929 37.8644 44.8243 37.7524C45.1605 37.6403 45.5503 37.5501 45.9937 37.4819C46.4371 37.4088 46.9438 37.365 47.5139 37.3504V36.9118C47.5139 36.41 47.4067 36.0396 47.1923 35.8009C46.9779 35.5573 46.6685 35.4354 46.2641 35.4354C45.9718 35.4354 45.7281 35.4696 45.5332 35.5378C45.3432 35.606 45.1751 35.6839 45.0289 35.7717C44.8827 35.8545 44.7487 35.93 44.6269 35.9982C44.51 36.0664 44.3784 36.1006 44.2322 36.1006C44.1055 36.1006 43.9984 36.0689 43.9106 36.0055C43.8229 35.9373 43.7523 35.8594 43.6987 35.7717L43.3771 35.1943Z" fill="#272727"/>
<path d="M57.8657 34.1491L53.78 43.7091C53.7264 43.8358 53.6558 43.9308 53.5681 43.9942C53.4853 44.0624 53.3561 44.0965 53.1807 44.0965H51.8359L53.2392 41.0852L50.206 34.1491H51.792C51.9333 34.1491 52.043 34.1832 52.1209 34.2514C52.2038 34.3196 52.2647 34.3976 52.3036 34.4853L53.897 38.3736C53.9506 38.5052 53.9944 38.6367 54.0285 38.7683C54.0675 38.8999 54.1041 39.0339 54.1382 39.1703C54.182 39.0339 54.2259 38.8999 54.2697 38.7683C54.3136 38.6319 54.3623 38.4979 54.4159 38.3663L55.9215 34.4853C55.9605 34.3878 56.0239 34.3074 56.1116 34.2441C56.2042 34.1808 56.3065 34.1491 56.4186 34.1491H57.8657Z" fill="#272727"/>
</g>
<rect x="0.390323" y="0.390323" width="70.2581" height="70.2194" stroke="#D3D3D3" stroke-width="0.780645"/>
<defs>
<clipPath id="clip0_2_851">
<rect width="43.7161" height="17.1742" fill="white" transform="translate(13.9584 27.3225)"/>
</clipPath>
</defs>
</svg>
