<svg width="72" height="71" viewBox="0 0 72 71" fill="none" xmlns="http://www.w3.org/2000/svg">
<rect x="0.390323" y="0.390323" width="70.2581" height="70.2194" fill="white"/>
<rect width="64.0129" height="39.0323" transform="translate(3.90308 16.3936)" fill="white"/>
<g clip-path="url(#clip0_2_837)">
<path d="M36.9396 33.2612C36.9111 35.5086 38.9424 36.7628 40.4727 37.5084C42.045 38.2736 42.5731 38.7642 42.5671 39.4483C42.555 40.4954 41.3128 40.9575 40.1502 40.9755C38.1218 41.007 36.9426 40.4279 36.005 39.9899L35.2743 43.4089C36.215 43.8425 37.9568 44.2206 39.7631 44.2371C44.0028 44.2371 46.7768 42.1442 46.7918 38.8992C46.8083 34.781 41.0953 34.553 41.1343 32.7121C41.1478 32.1541 41.6804 31.5585 42.8476 31.4069C43.4252 31.3304 45.02 31.2719 46.8278 32.1045L47.5374 28.7965C46.5652 28.4424 45.3155 28.1034 43.7598 28.1034C39.7691 28.1034 36.9621 30.2247 36.9396 33.2612ZM54.356 28.3884C53.5819 28.3884 52.9293 28.84 52.6382 29.5331L46.5817 43.994H50.8184L51.6616 41.6641H56.8389L57.328 43.994H61.0621L57.8036 28.3884H54.356ZM54.9486 32.6041L56.1713 38.4641H52.8228L54.9486 32.6041ZM31.8028 28.3884L28.4632 43.994H32.5004L35.8384 28.3884H31.8028ZM25.8303 28.3884L21.6281 39.0102L19.9283 29.9787C19.7288 28.9705 18.9411 28.3884 18.0665 28.3884H11.1968L11.1008 28.8415C12.5111 29.1476 14.1133 29.6411 15.084 30.1692C15.6781 30.4918 15.8476 30.7738 16.0427 31.5405L19.2622 43.994H23.5289L30.07 28.3884H25.8303Z" fill="url(#paint0_linear_2_837)"/>
</g>
<rect x="0.390323" y="0.390323" width="70.2581" height="70.2194" stroke="#D3D3D3" stroke-width="0.780645"/>
<defs>
<linearGradient id="paint0_linear_2_837" x1="34.0701" y1="44.5607" x2="34.5371" y2="27.9912" gradientUnits="userSpaceOnUse">
<stop stop-color="#222357"/>
<stop offset="1" stop-color="#254AA5"/>
</linearGradient>
<clipPath id="clip0_2_837">
<rect width="49.9613" height="16.1984" fill="white" transform="translate(11.1008 28.1033)"/>
</clipPath>
</defs>
</svg>
