<svg width="72" height="71" viewBox="0 0 72 71" fill="none" xmlns="http://www.w3.org/2000/svg">
<rect x="0.390323" y="0.390323" width="70.2581" height="70.2194" fill="white"/>
<rect width="64.0129" height="39.0323" transform="translate(3.90332 16.3936)" fill="white"/>
<g clip-path="url(#clip0_2_842)">
<path d="M34.4095 35.6727V40.6868H32.8276V28.3096H37.0229C38.0349 28.2898 39.0076 28.6748 39.7445 29.3854C40.4814 30.0467 40.894 31.0041 40.8744 31.9912C40.894 32.988 40.4814 33.9455 39.7445 34.6166C39.0076 35.3174 38.1037 35.6727 37.0328 35.6727H34.4095ZM34.4095 29.8296V34.1527H37.0622C37.6517 34.1725 38.2216 33.9356 38.6244 33.5112C39.4595 32.7018 39.4694 31.3693 38.6637 30.5304L38.6244 30.4909C38.2216 30.0566 37.6517 29.8197 37.0622 29.8394L34.4095 29.8296ZM44.5195 31.9418C45.6886 31.9418 46.6122 32.2577 47.2901 32.8795C47.968 33.5112 48.3021 34.3699 48.3021 35.4655V40.677H46.789V39.5024H46.7203C46.062 40.4697 45.1974 40.9533 44.1068 40.9533C43.1832 40.9533 42.3972 40.677 41.7783 40.1242C41.1691 39.611 40.8252 38.851 40.8449 38.0515C40.8449 37.173 41.1789 36.4821 41.8372 35.959C42.4955 35.4359 43.3797 35.1792 44.4802 35.1792C45.4234 35.1792 46.1897 35.3569 46.7989 35.6925V35.3273C46.7989 34.7844 46.5631 34.2712 46.1504 33.9257C45.7279 33.5507 45.1876 33.3434 44.6275 33.3434C43.7433 33.3434 43.0457 33.7184 42.525 34.4686L41.1298 33.5901C41.8863 32.4945 43.0162 31.9418 44.5195 31.9418ZM42.4758 38.091C42.4758 38.5055 42.6723 38.8904 42.9966 39.1273C43.3503 39.4037 43.7826 39.5517 44.2247 39.5419C44.8928 39.5419 45.5314 39.2754 46.003 38.8016C46.5238 38.3081 46.789 37.7258 46.789 37.0546C46.2978 36.6598 45.61 36.4624 44.7258 36.4624C44.0871 36.4624 43.5468 36.6203 43.1145 36.9263C42.692 37.2421 42.4758 37.6271 42.4758 38.091ZM56.9874 32.2182L51.7016 44.4178H50.0706L52.0356 40.1538L48.5575 32.228H50.2769L52.7823 38.3081H52.8216L55.2681 32.228L56.9874 32.2182Z" fill="#5F6368"/>
<path d="M28.0134 34.587C28.0134 34.1034 27.9741 33.6198 27.8955 33.146H21.2242V35.88H25.0462C24.889 36.7585 24.3781 37.5481 23.6314 38.0416V39.8183H25.9108C27.247 38.5845 28.0134 36.7585 28.0134 34.587Z" fill="#4285F4"/>
<path d="M21.2244 41.5355C23.1304 41.5355 24.7417 40.9038 25.9109 39.8181L23.6315 38.0414C22.9929 38.4757 22.1774 38.7225 21.2244 38.7225C19.3773 38.7225 17.8151 37.469 17.255 35.791H14.9069V37.6269C16.1055 40.0155 18.552 41.5355 21.2244 41.5355Z" fill="#34A853"/>
<path d="M17.255 35.7911C16.9602 34.9127 16.9602 33.9553 17.255 33.067V31.241H14.9068C14.4079 32.2289 14.1478 33.3212 14.1478 34.429C14.1478 35.5369 14.4079 36.6292 14.9068 37.6171L17.255 35.7911Z" fill="#FBBC04"/>
<path d="M21.2244 30.1355C22.2364 30.1157 23.209 30.5007 23.9361 31.2014L25.9502 29.1781C24.673 27.964 22.9831 27.3027 21.2244 27.3225C18.552 27.3225 16.1055 28.8425 14.9069 31.2409L17.255 33.0768C17.8151 31.389 19.3773 30.1355 21.2244 30.1355Z" fill="#EA4335"/>
</g>
<rect x="0.390323" y="0.390323" width="70.2581" height="70.2194" stroke="#D3D3D3" stroke-width="0.780645"/>
<defs>
<clipPath id="clip0_2_842">
<rect width="42.9355" height="17.1742" fill="white" transform="translate(14.0516 27.3225)"/>
</clipPath>
</defs>
</svg>
