<svg width="72" height="71" viewBox="0 0 72 71" fill="none" xmlns="http://www.w3.org/2000/svg">
<rect x="0.390323" y="0.390323" width="70.2581" height="70.2194" fill="white"/>
<rect width="64.0129" height="39.0323" transform="translate(3.9032 16.3936)" fill="white"/>
<g clip-path="url(#clip0_2_831)">
<path d="M41.1895 45.8729H30.634V26.9033H41.1897L41.1895 45.8729Z" fill="#FF5F00"/>
<path d="M31.3034 36.3885C31.3034 32.5405 33.1052 29.1127 35.9108 26.9037C33.7871 25.2291 31.1604 24.3202 28.4559 24.3242C21.7937 24.3242 16.3932 29.7255 16.3932 36.3885C16.3932 43.0514 21.7937 48.4527 28.4559 48.4527C31.1604 48.4567 33.7872 47.5479 35.911 45.8733C33.1056 43.6646 31.3034 40.2366 31.3034 36.3885Z" fill="#EB001B"/>
<path d="M55.4303 36.3885C55.4303 43.0514 50.0298 48.4527 43.3676 48.4527C40.6627 48.4567 38.0357 47.5478 35.9115 45.8733C38.7179 43.6642 40.5196 40.2366 40.5196 36.3885C40.5196 32.5403 38.7179 29.1127 35.9115 26.9037C38.0356 25.2291 40.6626 24.3203 43.3674 24.3242C50.0296 24.3242 55.4301 29.7255 55.4301 36.3885" fill="#F79E1B"/>
</g>
<rect x="0.390323" y="0.390323" width="70.2581" height="70.2194" stroke="#D3D3D3" stroke-width="0.780645"/>
<defs>
<clipPath id="clip0_2_831">
<rect width="39.0323" height="23.9516" fill="white" transform="translate(16.3933 24.3242)"/>
</clipPath>
</defs>
</svg>
