<svg width="75" height="66" viewBox="0 0 75 66" fill="none" xmlns="http://www.w3.org/2000/svg">
<path d="M73.8871 32.0301L65.0746 11.4676C64.8485 10.9391 64.4721 10.4887 63.9922 10.1722C63.5122 9.85572 62.9499 9.68718 62.3751 9.6875H53.5626V3.8125C53.5626 3.03343 53.2531 2.28626 52.7022 1.73537C52.1513 1.18449 51.4041 0.875 50.6251 0.875H3.62507V6.75H47.6876V43.6332C46.349 44.4105 45.1776 45.445 44.2409 46.6772C43.3041 47.9094 42.6206 49.3148 42.2297 50.8125H23.7704C23.0555 48.0434 21.3551 45.6302 18.9882 44.0251C16.6212 42.42 13.7501 41.7333 10.913 42.0936C8.07593 42.454 5.46766 43.8367 3.57712 45.9826C1.68658 48.1284 0.643555 50.8901 0.643555 53.75C0.643555 56.6099 1.68658 59.3716 3.57712 61.5174C5.46766 63.6633 8.07593 65.046 10.913 65.4063C13.7501 65.7667 16.6212 65.08 18.9882 63.4749C21.3551 61.8698 23.0555 59.4566 23.7704 56.6875H42.2297C42.8687 59.2086 44.3301 61.4446 46.3827 63.0418C48.4352 64.639 50.9618 65.5062 53.5626 65.5062C56.1634 65.5062 58.6899 64.639 60.7425 63.0418C62.795 61.4446 64.2564 59.2086 64.8954 56.6875H71.1876C71.9666 56.6875 72.7138 56.378 73.2647 55.8271C73.8156 55.2762 74.1251 54.5291 74.1251 53.75V33.1875C74.1252 32.7895 74.0443 32.3957 73.8871 32.0301ZM12.4376 59.625C11.2756 59.625 10.1397 59.2804 9.17359 58.6349C8.20745 57.9893 7.45444 57.0718 7.00978 55.9983C6.56511 54.9247 6.44877 53.7435 6.67545 52.6038C6.90214 51.4642 7.46168 50.4174 8.28332 49.5957C9.10495 48.7741 10.1518 48.2146 11.2914 47.9879C12.4311 47.7612 13.6123 47.8775 14.6858 48.3222C15.7593 48.7669 16.6769 49.5199 17.3225 50.486C17.968 51.4522 18.3126 52.588 18.3126 53.75C18.311 55.3077 17.6915 56.8011 16.5901 57.9025C15.4887 59.004 13.9952 59.6234 12.4376 59.625ZM53.5626 15.5625H60.4363L66.7343 30.25H53.5626V15.5625ZM53.5626 59.625C52.4006 59.625 51.2647 59.2804 50.2986 58.6349C49.3325 57.9893 48.5794 57.0718 48.1348 55.9983C47.6901 54.9247 47.5738 53.7435 47.8005 52.6038C48.0271 51.4642 48.5867 50.4174 49.4083 49.5957C50.2299 48.7741 51.2768 48.2146 52.4164 47.9879C53.556 47.7612 54.7373 47.8775 55.8108 48.3222C56.8843 48.7669 57.8019 49.5199 58.4474 50.486C59.093 51.4522 59.4376 52.588 59.4376 53.75C59.436 55.3077 58.8165 56.8011 57.7151 57.9025C56.6137 59.004 55.1202 59.6234 53.5626 59.625ZM68.2501 50.8125H64.8954C64.2484 48.2963 62.7846 46.066 60.7337 44.4712C58.6828 42.8764 56.1606 42.0072 53.5626 42V36.125H68.2501V50.8125Z" fill="black"/>
</svg>
