<svg width="40" height="40" viewBox="0 0 40 40" fill="none" xmlns="http://www.w3.org/2000/svg">
<path fill-rule="evenodd" clip-rule="evenodd" d="M19.9827 3.42432C26.3901 3.42432 31.5724 8.60655 31.5724 15.014C31.5724 23.7062 19.9827 36.5376 19.9827 36.5376C19.9827 36.5376 8.39307 23.7062 8.39307 15.014C8.39307 8.60655 13.5753 3.42432 19.9827 3.42432ZM11.7043 15.014C11.7043 19.7327 16.5388 26.9514 19.9826 31.372C23.4926 26.9183 28.2609 19.7823 28.2609 15.014C28.2609 10.4444 24.5522 6.73569 19.9826 6.73569C15.413 6.73569 11.7043 10.4444 11.7043 15.014ZM19.9824 19.1534C17.6964 19.1534 15.8433 17.3002 15.8433 15.0142C15.8433 12.7282 17.6964 10.875 19.9824 10.875C22.2684 10.875 24.1216 12.7282 24.1216 15.0142C24.1216 17.3002 22.2684 19.1534 19.9824 19.1534Z" fill="white"/>
</svg>
